<?xml version="1.0" encoding="UTF-8"?>
<!-- Created with Inkscape (http://www.inkscape.org/) -->
<svg width="210mm" height="297mm" version="1.1" viewBox="0 0 210 297" xmlns="http://www.w3.org/2000/svg">
    <rect x="0" y="0" width="456" height="456" fill="#512BD4" />
 <path d="m20.64 70.319h64.421l-11.079-16.708 38.867 19.925-38.867 20.104 10.365-16.44-63.707-0.089354z" fill="#1296db"/>
 <path d="m136.88 61.83-85.061 111.15 58.971 39.671 83.274-124.02z" fill="#1296db"/>
 <g fill="#fff" fill-opacity=".46667">
  <path d="m132.88 78.961c0.7294 1.3434 1.419 2.708 2.4822 3.821 0.65845 0.62875 1.4668 0.86194 2.3469 0.94982 0.889 0.04018 1.7796 0.0145 2.6691 0.0055 0.77619-0.05673 1.4534-0.02143 2.112 0.40878 0.70841 0.62445 1.0983 1.509 1.5779 2.3039 0.43143 0.74273 1.0581 1.1869 1.8661 1.4281 1.0984 0.18768 2.2206 0.14191 3.3305 0.14163 0.86156 0.08813 1.8207-0.18343 2.6548 0.13389 0.14227 0.05413 0.26706 0.14616 0.40059 0.21923 0.49903 0.44807 0.7776 1.0682 0.98825 1.6941 0.0536 0.15932 0.0719 0.3311 0.1418 0.48396 0.0666 0.14554 0.17556 0.26767 0.26334 0.4015 0.1451 0.09095 0.27542 0.2115 0.43531 0.27283 0.86206 0.33069 1.9411-0.12458 2.7957-0.28914 0.7152-0.12749 1.0519 0.23222 1.3831 0.80949 0.60262 0.88497 1.6928 1.0906 2.6756 1.3104 0.99059 0.19442 2.1043 0.01691 2.6341 1.0369 0.24503 0.70102 0.0136 1.4086-0.10618 2.1112 0.0422 0.91041 0.77809 1.1961 1.5564 1.3645 1.0558 0.13364 2.1214-0.06984 3.1765-0.14808 0.99792-0.07032 1.998-0.09856 2.9981-0.11199 0.71538 0.0091 1.4336-0.03679 2.1476 0.01741 0.62866 0.12209 0.42982 0.71745 0.303 1.1682-0.12509 0.33911-0.34208 0.62446-0.55283 0.91289l3.6269-1.5849c0.20618-0.33154 0.41203-0.65999 0.50155-1.0463 0.13557-0.68578 0.10313-1.4311-0.63759-1.7377-0.71872-0.13846-1.4614-0.03208-2.19-0.0598-1.011 0.01217-2.0219 0.04027-3.0309 0.10779-1.0322 0.0694-2.0668 0.22254-3.0971 0.21106-0.55557-0.07651-1.2845-0.11243-1.2422-0.83116 0.13623-0.7881 0.30964-1.5722-0.0174-2.3421-0.68357-1.2495-1.5574-1.1498-2.8388-1.3147-0.62958-0.12391-1.4503-0.26658-2.0195-0.5797-0.18658-0.10264-0.32466-0.3057-0.45327-0.46471-0.37881-0.66472-0.82012-1.2489-1.6628-1.2034-0.79282 0.12013-1.8824 0.5699-2.647 0.48664-0.11353-0.01236-0.21833-0.06714-0.32749-0.10071-0.58908-0.80677-0.60706-2.0413-1.4879-2.7165-0.15268-0.10175-0.29386-0.22332-0.45803-0.30526-0.84121-0.41982-1.8379-0.15766-2.7335-0.21701-1.0823 0.0026-2.1685 0.01992-3.2473-0.08122-0.74919-0.1487-1.3184-0.47996-1.7121-1.1619-0.51781-0.8353-0.93184-1.7617-1.6543-2.4478-0.74196-0.5515-1.3301-0.69011-2.2566-0.60806-0.88095 0.01056-1.7621 0.02787-2.6431 0.01633-0.80745-0.03516-1.5741-0.14954-2.2097-0.70016-1.0757-1.0482-1.7465-2.3862-2.4087-3.7196l-3.4329 1.9547z"/>
  <path d="m126.29 88.17c0.35264 1.1014 0.72682 2.2019 1.5053 3.0744 0.68099 0.63878 1.5661 0.92736 2.4516 1.1545 1.0788 0.26769 2.1789 0.42888 3.284 0.53598 0.86641 0.04435 1.4458 0.43194 1.8948 1.1519 0.42641 0.83386 0.77401 1.6934 1.3321 2.4503 0.71354 0.78521 1.6818 0.95631 2.687 1.0646 0.96479 0.07679 1.9334 0.07649 2.9006 0.07152 1.0278-0.0182 1.4308 0.35765 1.9631 1.1735 0.27324 0.66636 0.70377 1.2256 1.209 1.7301 0.52999 0.3687 0.95749 0.82283 1.399 1.2873 0.53168 0.50224 1.1672 0.80556 1.8655 0.99359 0.94383 0.2501 1.929 0.27465 2.8635 0.55616 0.60574 0.34205 1.1848 0.68848 1.859 0.87789 0.68264 0.15414 1.3857 0.15943 2.082 0.16795 0.71675-0.0325 1.4192 0.0157 2.1257 0.1313 0.70363 0.15047 1.4303 0.12096 2.1347 0.25027 0.66478 0.232 0.84688 0.8133 0.95515 1.4474 0.0859 0.7874 0.0689 1.5818 0.0641 2.3727-0.0678 0.83323 0.0504 1.5631 0.57326 2.2275 0.073 0.0827 0.14606 0.16541 0.21909 0.24811l3.3934-2.0538c-0.0706-0.0778-0.14123-0.15552-0.21185-0.23328-0.49615-0.56883-0.47673-1.2623-0.44655-1.9842 1e-3 -0.8142 0.0184-1.6343-0.0939-2.4425-0.15873-0.76835-0.44164-1.4584-1.1873-1.825-0.69197-0.23974-1.4395-0.13229-2.1568-0.28347-0.71994-0.11984-1.426-0.24727-2.1608-0.18216-0.67615-2e-3 -1.3562 4e-3 -2.0268-0.0953-0.68725-0.13779-1.2715-0.44774-1.8487-0.84302-0.93025-0.34379-1.9217-0.33998-2.8775-0.59203-0.65189-0.12827-1.2333-0.36074-1.7396-0.80522-0.4529-0.45819-0.84855-0.95597-1.405-1.3-0.50537-0.46652-0.90005-1.0127-1.1723-1.6476-0.5712-0.87515-1.063-1.4615-2.1821-1.5015-0.96213 0.0043-1.9252 0.02032-2.8863-0.03442-0.89901-0.06944-1.8146-0.13126-2.4963-0.79423-0.56008-0.74181-0.8934-1.5982-1.3141-2.4223-0.49738-0.80015-1.1225-1.3668-2.1-1.4559-1.0926-0.08273-2.1848-0.21379-3.2473-0.49082-0.82185-0.17887-1.6635-0.41671-2.3271-0.95484-0.75658-0.79923-1.1027-1.8544-1.394-2.8996l-3.4874 1.8741z"/>
  <path d="m119.53 99.579c1.34 0.84211 2.7949 1.4536 4.2593 2.04 1.3276 0.52704 2.7244 0.8197 4.1088 1.1485 1.2765 0.26507 2.4973 0.71515 3.7083 1.1876 0.92854 0.39499 1.8396 0.84215 2.6828 1.398 0.7783 0.60322 1.5281 1.2594 2.105 2.0616 0.4736 0.76966 1.0166 1.4784 1.667 2.105 0.59775 0.55388 1.0203 1.2537 1.5575 1.8597 0.6316 0.66133 1.4767 0.80241 2.3452 0.89262 0.92402 0.0664 1.8515 0.0566 2.7773 0.0542 0.73682-0.0218 1.0658 0.49023 1.2859 1.12 0.25754 0.73881 0.42033 1.483 0.83548 2.1547 0.35738 0.66336 0.9042 1.0304 1.6106 1.2349 0.66974 0.2248 1.3616 0.3441 2.062 0.41782 0.70365 0.0853 1.421-6e-3 2.1118 0.16493 0.79651 0.24688 1.0362 0.96334 1.3428 1.6522 0.0424 0.10492 0.0847 0.20984 0.1271 0.31477l3.4593-1.9358c-0.0451-0.10831-0.0902-0.21662-0.13533-0.32493-0.35055-0.7745-0.66762-1.5834-1.5144-1.9355-0.6989-0.27241-1.4271-0.19013-2.1652-0.23522-0.6857-0.0521-1.3786-0.1245-2.0253-0.37406-0.64698-0.11812-1.1308-0.36436-1.4502-0.97162-0.40643-0.64116-0.52444-1.3812-0.79263-2.0836-0.27344-0.72482-0.70375-1.4548-1.5527-1.5253-0.91972 7e-3 -1.8402 0.0194-2.7593-0.0226-0.7756-0.0536-1.5782-0.0901-2.1771-0.6488-0.55683-0.602-0.9661-1.326-1.576-1.8832-0.642-0.60278-1.1714-1.2882-1.6305-2.041-0.60416-0.83793-1.3774-1.5284-2.1791-2.175-0.84456-0.60736-1.7988-1.0402-2.745-1.4651-1.2219-0.48582-2.4544-0.96214-3.7463-1.2282-1.3702-0.33126-2.755-0.60122-4.078-1.1045-1.4561-0.55317-2.9139-1.1254-4.2063-2.0112l-3.3128 2.1592z"/>
  <path d="m112.21 109.29c0.83115 0.97505 1.7141 1.9018 2.7483 2.6615 0.83416 0.59193 1.7063 1.1339 2.6648 1.4971 0.92066 0.25969 1.8517 0.48119 2.7769 0.72431 1.3076 0.32764 2.6439 0.52404 3.9598 0.81495 0.86875 0.15122 1.6469 0.39816 2.3563 0.92288 0.67169 0.79556 1.2371 1.6852 1.8118 2.5542 0.53463 0.78923 1.0042 1.6191 1.496 2.4349 0.35103 0.56829 0.74882 0.99231 1.3729 1.2418 0.74498 0.27899 1.4886 0.54367 2.2666 0.71474 0.76214 0.17334 1.5153 0.34234 2.2119 0.70402 0.61961 0.34586 0.97555 0.84615 1.3166 1.4393 0.28085 0.65664 0.72771 1.1783 1.2717 1.6297 0.62429 0.47604 1.4003 0.56489 2.1391 0.74623 0.62553 0.14369 0.80976 0.5578 0.90984 1.1404 0.13265 0.79042 0.59728 1.3346 1.2219 1.7946 0.68005 0.36745 1.3578 0.74073 2.0857 1.0051 0.48224 0.13319 0.96173 0.27544 1.4459 0.40135l3.2602-2.2507c-0.48081-0.11106-0.9465-0.26888-1.4282-0.37403-0.71634-0.21854-1.3476-0.59408-2.0217-0.9123-0.57843-0.37579-0.96672-0.82579-1.0641-1.533-0.14942-0.69515-0.42451-1.285-1.1492-1.5224-0.691-0.16983-1.4245-0.23283-2.0449-0.60366-0.52969-0.40198-0.926-0.8914-1.1896-1.5064-0.38089-0.6512-0.77561-1.2108-1.4387-1.6156-0.7152-0.41799-1.4749-0.62267-2.2791-0.80549-0.77185-0.13859-1.5084-0.37188-2.229-0.68153-0.58927-0.14947-0.90771-0.49392-1.2323-1.0011-0.503-0.81506-0.98416-1.644-1.5237-2.4361-0.6018-0.90405-1.1794-1.8322-1.8624-2.6762-0.74094-0.58823-1.5228-0.9183-2.467-1.0531-1.3073-0.30815-2.6448-0.47855-3.9488-0.80272-0.91047-0.25674-1.8269-0.49257-2.7471-0.71136-0.9509-0.30188-1.802-0.82458-2.6185-1.3911-1.0157-0.71761-1.8901-1.6018-2.6702-2.5693l-3.4017 2.0188z"/>
  <path d="m105.67 121.77c0.66447 1.2837 1.788 2.0513 3.0964 2.5718 1.0704 0.40394 2.2399 0.34794 3.3216 0.69304 0.77217 0.33754 1.2315 1.0047 1.6702 1.688 0.55066 0.67684 1.1549 1.1353 1.4762 1.9674 0.0617 0.15951 0.22058 0.60702 0.33059 0.74668 0.5616 0.71293 1.6563 0.78823 2.4785 0.92243 1.1635 0.17647 2.3637 0.0195 3.3739 0.70287 0.64084 0.50973 0.50876 1.47 0.97334 2.0732 0.10366 0.13457 0.25034 0.22968 0.37551 0.34452 0.55566 0.39662 1.2803 0.36918 1.8586 0.7106 0.16991 0.10032 0.41347 0.33192 0.55874 0.46229 0.74195 0.80066 1.8185 0.97129 2.8475 1.1208 0.91028 0.0477 1.4919 0.13435 2.126 0.79203 0.79877 0.78135 1.9347 0.9501 2.924 1.3823 0.74565 0.29093 1.2925 0.85596 1.8414 1.4142 0.63864 0.63231 1.2851 1.2592 1.9462 1.8685 0.58324 0.46672 1.1062 0.98352 1.4742 1.6368l3.4324-1.978c-0.3913-0.68677-0.91638-1.2601-1.5405-1.746-0.6698-0.58714-1.3047-1.2167-1.9366-1.8438-0.57417-0.59487-1.1424-1.2196-1.9276-1.5341-0.93806-0.43917-2.0295-0.56066-2.8275-1.2593-0.6831-0.75009-1.2542-0.99916-2.2956-1.0057-0.94985-0.11132-2.0079-0.19232-2.6966-0.93429-0.11389-0.10375-0.50985-0.47007-0.62174-0.54678-0.54881-0.37632-1.2129-0.37954-1.8101-0.6386-0.0948-0.0664-0.21001-0.11063-0.28451-0.19926-0.43074-0.51246-0.43398-1.7838-1.0814-2.2304-0.14648-0.11763-0.27626-0.25981-0.43944-0.3529-0.91193-0.52029-2.0739-0.33133-3.0631-0.49652-0.56599-0.0775-1.845-0.15108-2.2449-0.62506-0.0997-0.11816-0.26695-0.59064-0.31503-0.71538-0.37331-0.91575-0.88473-1.3106-1.5148-2.0324-0.4808-0.7527-0.99426-1.4786-1.8093-1.9026-1.0628-0.44233-2.2472-0.32899-3.3412-0.67852-1.2472-0.43403-2.3275-1.1016-2.9138-2.3372l-3.4416 1.9596z"/>
  <path d="m96.723 133.48c1.7242 0.48402 3.4548 0.9439 5.1508 1.5207 1.5813 0.52605 3.048 1.3073 4.3176 2.3844 0.97773 0.92821 1.5588 2.169 2.0905 3.3868 0.46981 1.2161 0.7347 2.4848 1.3283 3.6511 0.36397 0.88481 1.0418 1.4829 1.756 2.0788 0.9793 0.81484 2.1666 1.2567 3.3498 1.6803 1.4047 0.38393 2.8124 0.78521 4.2414 1.0722 1.3285 0.1985 2.673 0.12001 3.9733 0.48797 0.84821 0.31138 0.92684 0.79885 1.1685 1.5628 0.1116 0.5761 0.8127 0.66931 1.0407 1.1361 1e-3 0.80102-0.1899 1.2638 0.0881 2.0775 0.50719 0.76075 1.448 0.8886 2.2771 1.0834 0.86873 0.18792 1.7554 0.25742 2.6413 0.29716 0.37739 0.0146 0.75506 0.0177 1.1327 0.0212l3.2064-2.3268c-0.37604-8e-4 -0.75211-1e-3 -1.1281-0.01-0.87189-0.0242-1.7457-0.07-2.6043-0.23484-1.3653-0.28657 0.43128 0.10253-0.81805-0.20424-0.44335-0.10886-0.94225-0.13578-1.2334-0.53617-0.21919-0.72012 0.0891-1.4226-0.11069-2.142-0.28337-0.51896-0.75277-0.57471-1.0139-1.0701-0.25878-0.82072-0.51972-1.5256-1.3914-1.8751-1.3013-0.42479-2.6483-0.38313-3.9974-0.52469-1.4269-0.24729-2.8253-0.64963-4.2267-1.0068-1.1392-0.40686-2.2877-0.81782-3.2462-1.5815-0.67075-0.56441-1.3326-1.105-1.6802-1.9402-0.5959-1.1554-0.85106-2.4197-1.3291-3.6229-0.55623-1.272-1.1783-2.5552-2.1768-3.5434-1.3045-1.1092-2.808-1.9316-4.4307-2.4848-1.6844-0.58699-3.4042-1.049-5.1105-1.5671l-3.265 2.2297z"/>
  <path d="m88.504 148.03c1.3501-0.13152 2.5165 0.17892 3.6114 0.9591 0.9043 0.7401 1.6179 1.6709 2.3438 2.5781 0.45099 0.49548 0.87093 1.021 1.3456 1.4942 0.49368 0.43297 1.019 0.74741 1.6534 0.91517 0.86488 0.14565 1.7426 0.11813 2.6103 0.23845 1.1438 0.17746 1.774 0.78655 2.3145 1.7675 0.40581 0.84698 0.72061 1.5613 1.4766 2.1434 0.60779 0.39277 1.0322 0.97965 1.5489 1.477 0.63448 0.55062 1.4191 0.76823 2.2301 0.89244l3.2338-2.2872c-0.74416-0.0757-1.4842-0.2078-2.0904-0.68086-0.17466-0.16885-0.36722-0.31966-0.53168-0.49847-0.33194-0.36091-0.58329-0.79382-1.0414-1.0244-0.79077-0.55935-0.97262-1.1356-1.4126-1.984-0.6005-1.085-1.2412-1.7969-2.4927-2.0833-0.861-0.13786-1.7213-0.1508-2.5896-0.22131-0.59959-0.0988-1.0601-0.34973-1.5295-0.73345-0.47881-0.44696-0.87061-0.98098-1.3338-1.4445-0.75542-0.92607-1.5032-1.8692-2.4143-2.65-1.1749-0.91778-2.2617-1.2295-3.7549-1.2207l-3.1776 2.3628z"/>
  <path d="m93.629 176.45c0.86142 0.99054 1.8062 1.9098 2.5754 2.9761 0.77107 1.1826 1.5178 1.2735 2.8574 1.4247 1.1664 0.0992 2.3377 0.10622 3.5075 0.10468 0.70989 0.0324 1.011 0.66128 1.2446 1.253 0.28019 0.66818 0.48988 1.3637 0.92998 1.947 0.54368 0.54805 1.3118 0.66984 2.0525 0.62895 1.7347-0.3156 3.2074-1.5868 4.649-2.4414 0.0971-0.0576 0.3793-0.24461 0.28166-0.18797-1.0402 0.60342-2.0733 1.2191-3.1099 1.8286 0.54066-0.2152 0.65064 0.0399 0.48162 0.52507l3.5716-1.7408c0.0423-0.64339-0.18389-1.2825-0.93987-1.2428-1.2316 0.69216-2.4677 1.3765-3.6949 2.0765-0.0984 0.0561-0.37962 0.24645-0.28075 0.19125 1.0438-0.58276 2.0752-1.1875 3.1165-1.7745 0.35237-0.19864-1.1053 0.63762-0.89186 0.40047-0.62321 0.10288-1.307 0.12015-1.8285-0.2948-0.43909-0.53667-0.59665-1.2262-0.87605-1.8509-0.2951-0.70795-0.70023-1.4739-1.5092-1.6429-1.1686 0.0122-2.3385 0.0235-3.5053-0.0545-1.233-0.1096-1.931-0.0657-2.6646-1.1557-0.78394-1.0674-1.7426-1.9841-2.5754-3.0126l-3.3915 2.0426z"/>
 </g>
 <path d="m104.91 93.602h-64.421l11.079-16.708-38.867 19.925 38.867 20.104-10.365-16.441 63.707-0.0893z" fill="#1296db"/>
</svg>
